<?xml version="1.0" standalone="no"?>
<!DOCTYPE svg PUBLIC "-//W3C//DTD SVG 20010904//EN"
 "http://www.w3.org/TR/2001/REC-SVG-20010904/DTD/svg10.dtd">
<svg version="1.0" xmlns="http://www.w3.org/2000/svg"
 width="512.000000pt" height="512.000000pt" viewBox="0 0 512.000000 512.000000"
 preserveAspectRatio="xMidYMid meet">
<metadata>
Created by potrace 1.11, written by Peter Selinger 2001-2013
</metadata>
<g transform="translate(0.000000,512.000000) scale(0.100000,-0.100000)"
fill="#000000" stroke="none">
<path d="M680 2565 l0 -1545 683 2 682 3 5 763 5 763 250 -290 c138 -159 252
-290 255 -290 3 0 118 131 255 290 l250 290 5 -763 5 -763 683 -3 682 -2 0
1545 0 1545 -659 0 -659 0 -277 -317 c-152 -175 -280 -318 -285 -318 -5 0
-132 142 -282 315 l-274 315 -662 3 -662 2 0 -1545z"/>
</g>
</svg>
